<svg id="ebTx7AQO6FI1" xmlns="http://www.w3.org/2000/svg" xmlns:xlink="http://www.w3.org/1999/xlink" viewBox="0 0 1000 1000" shape-rendering="geometricPrecision" text-rendering="geometricPrecision" project-id="c08cce0214a442628707f51318db55ad" export-id="6724f745a2224919b31b19025a00c2d4" cached="false">
  <circle id="ebTx7AQO6FI2" r="235" transform="matrix(.5 0 0 0.5 500 461.299994)" opacity="0.15" fill="#fa9e34"/>
  <path d="M598.8,413.9l-35.5,20.5-17.9,10.4h-9L494.8,310l41.9,135.8h-4.9l.4,1.2.4,1.2.3.8.1.3h13.8l.5-.3l46.9-27.1v-2.7l6.4-3.7-1.8-1.6ZM434.1,445.8l-.7,1.2-1.2,2l.5.3h11.1l.4-1.1.4-1.2.4-1.2h-10.9Zm164.7-31.9l-35.5,20.5-17.9,10.4h-9L494.8,310l41.9,135.8h-4.9l.4,1.2.4,1.2.3.8.1.3h13.8l.5-.3l46.9-27.1v-2.7l6.4-3.7-1.8-1.6ZM434.1,445.8l-.7,1.2-1.2,2l.5.3h11.1l.4-1.1.4-1.2.4-1.2h-10.9Zm164.7-31.9l-35.5,20.5-17.9,10.4h-9L494.8,310l41.9,135.8h-4.9l.4,1.2.4,1.2.3.8.1.3h13.8l.5-.3l46.9-27.1v-2.7l6.4-3.7-1.8-1.6ZM434.1,445.8l-.7,1.2-1.2,2l.5.3h11.1l.4-1.1.4-1.2.4-1.2h-10.9ZM546,447.1l-.7-1.2h-8.6l.4,1.2h-4.9l-.4-1.2.4,1.2.4,1.2.3.8.1.3h13.8l.5-.3-1.3-2Zm-111.9-1.3l-.7,1.2-1.2,2l.5.3h11.1l.4-1.1.4-1.2.4-1.2h-10.9ZM546,447.1l-.7-1.2h-8.6l.4,1.2h-4.9l-.4-1.2.4,1.2.4,1.2.3.8.1.3h13.8l.5-.3-1.3-2Zm-107.5,0v2.4h5.3l.4-1.1.4-1.2h-6.1v-.1ZM603,411.4l-4.2,2.4-35.5,20.5-17.9,10.4h-9L494.8,310v0l-1-3.3-2-6.3v0l-.1-.3-.5-.3-1.5-.8-1.5.8-.5.3-.1.3-2.1,6.4-1.1,3.5-43.9,134.4h-6.4l-47.5-27.4-5.9-3.4v0l-4.2-2.4-3.9-2.3v85.8l19.6,11.3l4.7,2.7l36,20.8h113.9l36.7-21.2l4.7-2.7L607,495v-85.8l-4,2.2ZM545.4,525h-111.3l-48.7-28.1-8.1-4.7v-74.8l8.1,4.7l46.9,27.1.5.3h11.1l.4-1.1.4-1.2.4-1.2l44.6-136.4L531.8,446l.4,1.2.4,1.2.3.8.1.3h13.8l.5-.3l46.9-27.1l1.2-.7l6.9-4v74.8l-8.1,4.7L545.4,525ZM434.1,445.8l-.7,1.2-1.2,2l.5.3h11.1l.4-1.1.4-1.2.4-1.2h-10.9ZM546,447.1l-.7-1.2h-8.6l.4,1.2h-4.9l-.4-1.2.4,1.2.4,1.2.3.8.1.3h13.8l.5-.3-1.3-2Zm-111.9-1.3l-.7,1.2-1.2,2l.5.3h11.1l.4-1.1.4-1.2.4-1.2h-10.9Zm164.7-31.9l-35.5,20.5-17.9,10.4h-9L494.8,310l41.9,135.8h-4.9l.4,1.2.4,1.2.3.8.1.3h13.8l.5-.3l46.9-27.1v-2.7l6.4-3.7-1.8-1.6ZM434.1,445.8l-.7,1.2-1.2,2l.5.3h11.1l.4-1.1.4-1.2.4-1.2h-10.9Zm164.7-31.9l-35.5,20.5-17.9,10.4h-9L494.8,310l41.9,135.8h-4.9l.4,1.2.4,1.2.3.8.1.3h13.8l.5-.3l46.9-27.1v-2.7l6.4-3.7-1.8-1.6ZM434.1,445.8l-.7,1.2-1.2,2l.5.3h11.1l.4-1.1.4-1.2.4-1.2h-10.9Zm164.7-31.9l-35.5,20.5-17.9,10.4h-9L494.8,310l41.9,135.8h-4.9l.4,1.2.4,1.2.3.8.1.3h13.8l.5-.3l46.9-27.1v-2.7l6.4-3.7-1.8-1.6ZM434.1,445.8l-.7,1.2-1.2,2l.5.3h11.1l.4-1.1.4-1.2.4-1.2h-10.9Zm164.7-31.9l-35.5,20.5-17.9,10.4h-9L494.8,310l41.9,135.8h-4.9l.4,1.2.4,1.2.3.8.1.3h13.8l.5-.3l46.9-27.1v-2.7l6.4-3.7-1.8-1.6ZM434.1,445.8l-.7,1.2-1.2,2l.5.3h11.1l.4-1.1.4-1.2.4-1.2h-10.9ZM546,447.1l-.7-1.2h-8.6l.4,1.2h-4.9l-.4-1.2.4,1.2.4,1.2.3.8.1.3h13.8l.5-.3-1.3-2Zm-111.9-1.3l-.7,1.2-1.2,2l.5.3h11.1l.4-1.1.4-1.2.4-1.2h-10.9Zm164.7-31.9l-35.5,20.5-17.9,10.4h-9L494.8,310l41.9,135.8h-4.9l.4,1.2.4,1.2.3.8.1.3h13.8l.5-.3l46.9-27.1v-2.7l6.4-3.7-1.8-1.6ZM434.1,445.8l-.7,1.2-1.2,2l.5.3h11.1l.4-1.1.4-1.2.4-1.2h-10.9Zm164.7-31.9l-35.5,20.5-17.9,10.4h-9L494.8,310l41.9,135.8h-4.9l.4,1.2.4,1.2.3.8.1.3h13.8l.5-.3l46.9-27.1v-2.7l6.4-3.7-1.8-1.6ZM434.1,445.8l-.7,1.2-1.2,2l.5.3h11.1l.4-1.1.4-1.2.4-1.2h-10.9Z" fill="#fff"/>
  <g>
    <g>
      <g>
        <g>
          <path d="M576.8,475.5v252.9c0,.5,0,1,0,1.5-1.5,24.3-39.1,43.7-85.3,43.7s-83.8-19.5-85.3-43.7c0-.5,0-1,0-1.5v-252.9h170.6m4.8-4.7h-4.7-170.8-4.7v4.7v252.9c0,.7,0,1.2.1,1.8.8,13.5,10.9,25.9,28.4,34.9c16.7,8.6,38.5,13.3,61.6,13.3s44.9-4.7,61.6-13.3c17.5-9,27.6-21.4,28.4-34.9c0-.6.1-1.1.1-1.8v-252.9-4.7v0Z"/>
        </g>
        <g>
          <path d="M406.1,728.4c0,.5,0,1,0,1.5v0-1.5m4.7,0h-9.5v1.5v4.7h4.7h5.1l-.3-5.1c0-.3,0-.6,0-1.1v0Z"/>
        </g>
        <g>
          <path d="M576.8,728.4v1.5v0c0-.5,0-1,0-1.5m4.8,0h-9.5c0,.4,0,.8,0,1.1l-.4,5.1h5.1h4.7v-4.7-1.5h.1Z"/>
        </g>
      </g>
    </g>
    <g>
      <ellipse rx="85.4" ry="45.2" transform="translate(491.4 728.4)" fill="#e8b87e"/>
      <rect width="170.7" height="254.4" rx="0" ry="0" transform="translate(406.1 475.5)" fill="#e8b87e"/>
    </g>
    <ellipse rx="85.4" ry="45.2" transform="translate(491.4 475.5)" fill="#ffdab6"/>
    <ellipse rx="95.2" ry="50.4" transform="translate(494.2 483.6)" fill="#d09750"/>
    <g>
      <path d="M446.7,648.9c-.3,0-.5-.1-.8-.2l-14.8-8.4c-.5-.3-.8-.8-.8-1.3v-7.5c0-.6.3-1.1.8-1.3.5-.3,1.1-.3,1.6,0l14.8,8.5c.5.3.8.8.8,1.3v7.3c0,.6-.3,1.1-.8,1.3-.2.3-.5.3-.8.3Zm-14.8-17.4l-.1,7.5v.1l14.8,8.4.1-7.4-14.8-8.6Z" fill="#d09750"/>
    </g>
    <g>
      <path d="M436.8,739.4c-.3,0-.5-.1-.8-.2l-14.8-8.4c-.5-.3-.8-.8-.8-1.3v-7.5c0-.6.3-1.1.8-1.3.5-.3,1.1-.3,1.6,0l14.8,8.5c.5.3.8.8.8,1.3v7.3c0,.6-.3,1.1-.8,1.3-.2.2-.5.3-.8.3ZM422,721.9l-.1,7.5v.1l14.8,8.4.1-7.4-14.8-8.6Z" fill="#d09750"/>
    </g>
    <g>
      <path d="M440.6,636.2c-.3,0-.5-.1-.8-.2L425,627.6c-.5-.3-.8-.8-.8-1.3v-7.5c0-.6.3-1.1.8-1.3.5-.3,1.1-.3,1.6,0l14.8,8.5c.5.3.8.8.8,1.3v7.3c0,.6-.3,1.1-.8,1.3-.3.3-.5.3-.8.3Zm-14.9-9.8l14.8,8.4.1-7.4-14.9-8.6v7.6l-.4.6.4-.6Z" fill="#d09750"/>
    </g>
    <g>
      <path d="M434.1,544.9c-.3,0-.5-.1-.8-.2l-14.8-8.4c-.5-.3-.8-.8-.8-1.3v-7.5c0-.6.3-1.1.8-1.3.5-.3,1.1-.3,1.6,0l14.8,8.5c.5.3.8.8.8,1.3v7.3c0,.6-.3,1.1-.8,1.3-.3.3-.5.3-.8.3Zm-14.9-9.8l14.8,8.4.1-7.4-14.9-8.6v7.6l-.4.6.4-.6Z" fill="#d09750"/>
    </g>
    <g>
      <path d="M547.8,613.5c.3,0,.5-.1.8-.2l14.8-8.4c.5-.3.8-.8.8-1.3v-7.5c0-.6-.3-1.1-.8-1.3-.5-.3-1.1-.3-1.6,0L547,603.3c-.5.3-.8.8-.8,1.3v7.3c0,.6.3,1.1.8,1.3.3.2.6.3.8.3ZM562.6,596l.1,7.5v.1L547.9,612l-.1-7.4l14.8-8.6Z" fill="#d09750"/>
    </g>
    <g>
      <path d="M554,600.8c.3,0,.5-.1.8-.2l14.8-8.4c.5-.3.8-.8.8-1.3v-7.5c0-.6-.3-1.1-.8-1.3-.5-.3-1.1-.3-1.6,0l-14.8,8.5c-.5.3-.8.8-.8,1.3v7.3c0,.6.3,1.1.8,1.3.2.2.5.3.8.3Zm14.9-9.9l-14.8,8.4-.1-7.4l14.9-8.6v7.6l.4.6-.4-.6Z" fill="#d09750"/>
    </g>
    <g>
      <path d="M544,560.4c.3,0,.5-.1.8-.2l14.8-8.4c.5-.3.8-.8.8-1.3v-7.5c0-.6-.3-1.1-.8-1.3-.5-.3-1.1-.3-1.6,0l-14.8,8.5c-.5.3-.8.8-.8,1.3v7.3c0,.6.3,1.1.8,1.3.3.2.6.3.8.3Zm14.9-9.8L544.1,559l-.1-7.4l14.9-8.6v7.6l.4.6-.4-.6Z" fill="#d09750"/>
    </g>
    <g>
      <path d="M544,718.9c.3,0,.5-.1.8-.2l14.8-8.4c.5-.3.8-.8.8-1.3v-7.5c0-.6-.3-1.1-.8-1.3-.5-.3-1.1-.3-1.6,0l-14.8,8.5c-.5.3-.8.8-.8,1.3v7.3c0,.6.3,1.1.8,1.3.3.2.6.3.8.3Zm14.9-9.8l-14.8,8.4-.1-7.4l14.9-8.6v7.6l.4.6-.4-.6Z" fill="#d09750"/>
    </g>
    <g>
      <path d="M504.6,597.6h-20.9c-1.2,0-2.2-1-2.2-2.2v-6.8c0-1.2,1-2.2,2.2-2.2h20.9c1.2,0,2.2,1,2.2,2.2v6.8c0,1.2-1,2.2-2.2,2.2Zm-20.9-9.5c-.2,0-.4.2-.4.4v6.8c0,.2.2.4.4.4h20.9c.2,0,.4-.2.4-.4v-6.8c0-.2-.2-.4-.4-.4h-20.9Z" fill="#d09750"/>
    </g>
    <g>
      <path d="M497.8,666.9h-20.9c-1.2,0-2.2-1-2.2-2.2v-6.8c0-1.2,1-2.2,2.2-2.2h20.9c1.2,0,2.2,1,2.2,2.2v6.8c0,1.2-1,2.2-2.2,2.2Zm-20.9-9.5c-.2,0-.4.2-.4.4v6.8c0,.2.2.4.4.4h20.9c.2,0,.4-.2.4-.4v-6.8c0-.2-.2-.4-.4-.4h-20.9Z" fill="#d09750"/>
    </g>
    <g>
      <path d="M511.5,749.1h-20.9c-1.2,0-2.2-1-2.2-2.2v-6.8c0-1.2,1-2.2,2.2-2.2h20.9c1.2,0,2.2,1,2.2,2.2v6.8c0,1.3-.9,2.2-2.2,2.2Zm-20.9-9.4c-.2,0-.4.2-.4.4v6.8c0,.2.2.4.4.4h20.9c.2,0,.4-.2.4-.4v-6.8c0-.2-.2-.4-.4-.4h-20.9Z" fill="#d09750"/>
    </g>
    <g>
      <path d="M515.5,588.1h-20.9c-1.2,0-2.2-1-2.2-2.2v-6.8c0-1.2,1-2.2,2.2-2.2h20.9c1.2,0,2.2,1,2.2,2.2v6.8c0,1.2-1,2.2-2.2,2.2Zm-20.9-9.4c-.2,0-.4.2-.4.4v6.8c0,.2.2.4.4.4h20.9c.2,0,.4-.2.4-.4v-6.8c0-.2-.2-.4-.4-.4h-20.9Z" fill="#d09750"/>
    </g>
    <g>
      <path d="M509.8,657.4h-20.9c-1.2,0-2.2-1-2.2-2.2v-6.8c0-1.2,1-2.2,2.2-2.2h20.9c1.2,0,2.2,1,2.2,2.2v6.8c0,1.2-1,2.2-2.2,2.2Zm-21-9.4c-.2,0-.4.2-.4.4v6.8c0,.2.2.4.4.4h20.9c.2,0,.4-.2.4-.4v-6.8c0-.2-.2-.4-.4-.4h-20.9Z" fill="#d09750"/>
    </g>
  </g>
  <polygon points="606.2,414.6 605.4,415.5 604.6,416.3 602.9,418 600.5,415.6 598.8,413.9 598.8,413.8 592.4,407.5 494.8,310 494.8,310 489.7,304.9 484.4,310.3 380.6,413.8 380.6,413.8 378.9,415.6 377.2,417.3 376.5,418 373.2,414.6 376.4,411.4 377.2,410.6 383.7,404.2 475.3,312.7 487.6,300.3 488.3,299.7 489.7,298.9 491.2,299.7 491.8,300.3 491.8,300.3 504.1,312.7 602.2,410.6" fill="#fff"/>
  <polygon points="537.3,447.7 535.5,448.3 532.8,449.1 532.5,448.3 532.3,447.7 532.1,447.1 531.8,445.8 489.6,309.4 445,445.8 444.6,447.1 444.3,448.3 443.9,449.4 442.2,449.4 442.2,448.6 441.3,448.3 439.5,447.7 439.7,447.1 440.1,445.8 440.4,444.7 484.4,310.3 485.5,306.7 487.6,300.3 487.7,300 488.3,299.7 489.7,298.9 491.2,299.7 491.7,300 491.8,300.3 491.8,300.3 493.7,306.7 494.8,310 494.8,310 536.7,445.8 537.1,447.1" fill="#fff"/>
  <rect width="112.6" height="2.4" rx="0" ry="0" transform="translate(433.4 526.1)" fill="#fff"/>
  <polygon points="606.9,366.6 606.9,414.6 605.4,415.5 604.6,416 602.2,417.3 602.2,417.3 595.3,421.3 594.1,422 547.2,449.1 546,447.1 545.3,445.8 544.8,445 545.4,444.7 563.3,434.3 598.8,413.8 602.2,411.9 602.2,369.3 504.1,312.7 493.7,306.7 489.7,304.3 485.5,306.7 475.3,312.7 377.2,369.3 377.2,411.9 380.6,413.8 380.6,413.8 386.5,417.2 434.1,444.7 434.6,445 434.1,445.8 433.4,447.1 432.2,449.1 385.3,422 377.2,417.3 377.2,417.3 374.8,416 374,415.5 372.5,414.6 372.5,366.6 373.6,365.9 487.7,300 488.3,299.7 489.7,298.9 491.2,299.7 491.7,300" fill="#fff"/>
  <rect width="112.6" height="2.4" rx="0" ry="0" transform="translate(433.4 445.8)" fill="#fff"/>
  <rect width="10.5" height="80.3" rx="0" ry="0" transform="translate(438.5 447.1)" fill="#fff"/>
  <rect width="10.5" height="80.3" rx="0" ry="0" transform="translate(527.2 447.1)" fill="#fff"/>
  <polygon points="385.3,419.3 385.3,499.6 374.8,493.5 374.8,413.2 376.8,414.4 378.9,415.6" fill="#fff"/>
  <polygon points="588.1,502.4 588.1,535.2 526.9,561.7 445.7,561.7 392,532.9 392,504.8 396.8,504.8 396.8,530.1 446.9,557 525.9,557 583.4,532.1 583.4,505 584.6,505 584.4,502.7" fill="#fff"/>
  <polygon points="475.3,312.7 383.7,404.2 377.2,410.6 377.2,369.3" fill="#ff9d45"/>
  <path d="M491.7,300l-.5-.3-1.5-.8-1.5.8-.5.3-114.1,65.9-1.2.7v128.3L392,506.2v26.7l53.7,28.8h81.2l61.2-26.5v-29.5l18.8-10.9v-128.2L491.7,300Zm110.5,69.3v41.3l-98.1-97.9l98.1,56.6ZM545.4,525h-7.6v-75.6h8.9l.5-.3L594.1,422v74.8L545.4,525ZM380.6,413.8L484.3,310.2L440.4,444.6h-6.4l-47.5-27.4-5.9-3.4Zm182.7,20.5l-17.9,10.4h-9L494.8,310l97.7,97.5l6.3,6.3-35.5,20.5ZM445,445.8l44.6-136.4l42.1,136.4h-86.7Zm4,2.5h78.2v76.7h-78.2v-76.7Zm-71.8-79l98.1-56.6-91.6,91.5-6.5,6.4v-41.3Zm8.1,127.6v-74.9l46.9,27.1.5.3h5.8v75.6h-4.5l-48.7-28.1Zm198.1,35.2L525.9,557h-79l-50.1-26.9v-21.2l36,20.8h113.9l36.7-21.2v23.6Z"/>
  <polygon points="583.4,508.5 583.4,532.1 525.9,557 446.9,557 396.8,530.1 396.8,508.9 432.8,529.7 546.6,529.7" fill="#a5692d"/>
  <polygon points="438.5,449.4 438.5,525 434.1,525 385.3,496.9 385.3,422 432.2,449.1 432.8,449.4" fill="#bc7f3c"/>
  <rect width="78.2" height="76.7" rx="0" ry="0" transform="translate(449 448.3)" fill="#bc7f3c"/>
  <polygon points="594.1,422 594.1,496.9 545.4,525 537.7,525 537.7,449.4 546.6,449.4 547.2,449.1" fill="#bc7f3c"/>
  <polygon points="602.2,369.3 602.2,410.6 504.1,312.7" fill="#db6d00"/>
  <polygon points="598.8,413.8 563.3,434.3 545.4,444.7 536.4,444.7 494.8,310 592.4,407.5" fill="#e07000"/>
  <polygon points="531.8,445.8 445,445.8 489.6,309.4" fill="#f27e00"/>
  <polygon points="484.4,310.3 440.4,444.7 434.1,444.7 386.5,417.2 380.6,413.8" fill="#fa9e34"/>
  <g>
    <path d="M585.6,488.3l-36.5,21c0,0-1.2-21.4,3.8-39.8l32.7,18.8Z" fill="#d09750"/>
    <path d="M567.4,446.3c20.2-11.4,18.2,42,18.2,42l-32.7-18.8c2.6-10,7.1-19,14.5-23.2Z" fill="#93551c"/>
  </g>
  <g>
    <path d="M393.7,488.3l36.5,21c0,0,1.2-21.4-3.8-39.8l-32.7,18.8Z" fill="#d09750"/>
    <path d="M411.8,446.3c-20.2-11.4-18.2,42-18.2,42l32.7-18.8c-2.6-10-7-19-14.5-23.2Z" fill="#93551c"/>
  </g>
  <path d="M522.3,513.5c0,.2,0,.3,0,.3h-61.2c0,0-2.6-52.4,30.6-52.4c3.1,0,5.9.5,8.4,1.3c1.4.5,2.8,1.1,4.1,1.8c19,10.6,18.2,45.6,18.1,49Z" fill="#d09750"/>
  <path d="M522.3,513.5c0,.2,0,.3,0,.3s-20.3-33.6-31.8-33.6-29.4,33.6-29.4,33.6-2.6-52.4,30.6-52.4c3.1,0,5.9.5,8.4,1.3c1.4.5,2.8,1.1,4.1,1.8c19,10.6,18.2,45.6,18.1,49Z" fill="#93551c"/>
  <g class="lightray">
    <path d="M500,350 L500,0" stroke="#fa9e34" stroke-width="10" opacity="0.5">
      <animate attributeName="opacity" values="0.5;1;0.5" dur="2s" repeatCount="indefinite"/>
    </path>
    <path d="M500,450 L500,1000" stroke="#fa9e34" stroke-width="10" opacity="0.5">
      <animate attributeName="opacity" values="0.5;1;0.5" dur="2s" repeatCount="indefinite"/>
    </path>
    <path d="M350,500 L0,500" stroke="#fa9e34" stroke-width="10" opacity="0.5">
      <animate attributeName="opacity" values="0.5;1;0.5" dur="2s" repeatCount="indefinite"/>
    </path>
    <path d="M650,500 L1000,500" stroke="#fa9e34" stroke-width="10" opacity="0.5">
      <animate attributeName="opacity" values="0.5;1;0.5" dur="2s" repeatCount="indefinite"/>
    </path>
  </g>
  <script>
    (function(s,i,o,w,d,a,b){w[o]=w[o]||{};w[o][s]=w[o][s]||[];w[o][s].push(i);})('5c7f360c',{"root":"ebTx7AQO6FI1","version":"2022-05-04","animations":[{"elements":{"ebTx7AQO6FI2":{"transform":{"data":{"o":{"x":500,"y":461.299988,"type":"corner"},"t":{"x":0,"y":0.000012}},"keys":{"s":[{"t":0,"v":{"x":0.5,"y":0.5}},{"t":1500,"v":{"x":1,"y":1}},{"t":3000,"v":{"x":0.5,"y":0.5}}]}},"opacity":[{"t":0,"v":0.15,"e":[0.42,0,1,1]},{"t":1500,"v":0.75,"e":[0.439432,0.085662,1,1]},{"t":2930,"v":0.15},{"t":3000,"v":0.75,"e":[0.439432,0.085662,1,1]}]}},"s":"MADA1ZGQ5ODBjMmQzZDEBiZmQyYzdjZGNjODAO5ODkxWThlOGU4ZThhGODBjMmM3ZDBjM0xjMGWQyYzdjZGNjODA5ODJhmOGFCODBjN2QyYzNJkMGJmZDJjN2NkY2NkOMTgwTTk4OGU4YTgwYEzRjN2NhY2FZODA5ODOhmOGE4MGJmY2FkMmMGzZDBjY2JmZDJjMzgwLOThjNGJmY2FkMWMzOTGE4MGQxY2VjM1BjM2IMyODA5ODhmOGE4MGMC0Y2VkMTgwOTg4ZkM4CZThlZGI/"}],"options":"MBDAxMDg4MmY4MDgxNmPU3ZkY4MTJmNDcyZjcB5N2M2ZTcxMmY4YQ|"},'__SVGATOR_PLAYER__',window,document);
  </script>
</svg>
